<svg xmlns="http://www.w3.org/2000/svg" xmlns:xlink="http://www.w3.org/1999/xlink" width="396.173" height="294.335" viewBox="0 0 396.173 294.335">
  <defs>
    <clipPath id="clip-path">
      <path id="Trazado_1338" data-name="Trazado 1338" d="M1133.408,263.1c.866,4.48.662,10.492.825,15.134a83.822,83.822,0,0,1-.417,13.737c7.127,1,13.772.837,20.968.753,3.05-.036,6.1-.072,9.143-.3,4.868-.36,9.685-1.2,14.529-1.807q6.871-.856,13.8-1.071a267.154,267.154,0,0,1,1.485-34.528c1.357-11.283,3.928-22.864,3.887-34.24-.013-3.709.331-10.143-3.959-11.818-3.835-1.5-7.723-2.846-11.617-4.177a57.9,57.9,0,0,0-11.1-2.821,49.176,49.176,0,0,0-16.416.773,101.122,101.122,0,0,0-14.42,4.342c-1.734.641-4.094,1.066-5.48,2.26-1.6,1.382-2.5,4.188-3.305,6.078a64,64,0,0,0-4.893,20.02,35.749,35.749,0,0,0,.277,9.942c1.1,5.188,3.946,9.752,5.826,14.661A18.15,18.15,0,0,1,1133.408,263.1Z" fill="#a6b73e"/>
    </clipPath>
  </defs>
  <g id="Grupo_923" data-name="Grupo 923" transform="translate(-956.673 -98.895)">
    <path id="Trazado_1323" data-name="Trazado 1323" d="M1018.493,244.82l.847-4.936-3.587-3.5,4.957-.72,2.216-4.491,2.217,4.491,4.957.72-3.586,3.5.846,4.936-4.434-2.331Zm275.465-8.433-4.957-.72-2.216-4.491-2.216,4.491-4.957.72,3.586,3.5-.846,4.936,4.433-2.331,4.433,2.331-.846-4.936Zm-272.584-27.093,4.885-1.1,3.679,3.4.461-4.987,4.368-2.449-4.6-1.978-.979-4.913-3.3,3.765-4.974-.587,2.559,4.3Zm22.638-43.169-4.164,2.782-4.654-1.855,1.358,4.821-3.2,3.852,5,.2,2.675,4.235,1.735-4.7,4.854-1.235-3.932-3.1Zm22.379-26.24-4.742,1.609-4.015-3,.064,5.008-4.089,2.892,4.783,1.486,1.486,4.784,2.893-4.09,5.008.064-3-4.014Zm23.41-19.226-3.1-3.933-1.235,4.855-4.7,1.735,4.235,2.673.2,5.005,3.851-3.2,4.821,1.358-1.855-4.653,2.782-4.166Zm25.466-4.048,4.55-2.094,4.3,2.559-.587-4.975,3.765-3.3-4.913-.978-1.978-4.6-2.449,4.37-4.987.46,3.4,3.678Zm75.412,262.206-1.978-4.6-2.45,4.369-4.986.46,3.4,3.679-1.1,4.885,4.549-2.1,4.3,2.56-.587-4.975,3.765-3.3ZM1156.466,98.895l-3.5,3.587-4.937-.847,2.332,4.433-2.332,4.433,4.937-.846,3.5,3.587.72-4.957,4.492-2.217-4.492-2.216Zm0,279.989-3.5,3.586-4.937-.846,2.332,4.432-2.332,4.434,4.937-.846,3.5,3.586.72-4.957,4.492-2.217-4.492-2.215Zm35.947-274.832-4.3,2.559-4.549-2.1,1.1,4.885-3.4,3.679,4.986.46,2.45,4.37,1.978-4.6,4.912-.979-3.765-3.3Zm-68.291,271-4.3,2.56-4.55-2.1,1.1,4.885-3.4,3.679,4.987.46,2.449,4.369,1.978-4.6,4.913-.979-3.765-3.3ZM1225.8,118.337l-4.821,1.357-3.852-3.2-.2,5.005-4.235,2.674,4.7,1.735,1.234,4.854,3.1-3.933,5,.326-2.782-4.165Zm20.653,18.414-1.487,4.782-4.783,1.487,4.089,2.892-.064,5.008,4.015-2.995,4.743,1.608-1.609-4.743,3-4.014-5.008.064Zm17.248,40.263,4.652-1.854,4.166,2.781-.327-5,3.933-3.1-4.854-1.234-1.735-4.7-2.674,4.234-5.005.2,3.2,3.852Zm12.075,30.25,4.974-.587,3.3,3.764.977-4.912,4.6-1.978-4.369-2.449-.46-4.987-3.678,3.4-4.886-1.1,2.1,4.549Z" fill="#db9600" opacity="0.8"/>
    <g id="Grupo_881" data-name="Grupo 881" opacity="0.7">
      <path id="Trazado_1324" data-name="Trazado 1324" d="M1236.024,156.738a114.922,114.922,0,1,0,0,162.52A114.931,114.931,0,0,0,1236.024,156.738Zm-81.265,190.749A109.49,109.49,0,1,1,1264.247,238,109.614,109.614,0,0,1,1154.759,347.487Z" fill="#f2e7cb"/>
      <path id="Trazado_1325" data-name="Trazado 1325" d="M1154.759,131.311A106.687,106.687,0,1,0,1261.445,238,106.806,106.806,0,0,0,1154.759,131.311Zm41.838,31.848c3.778-5.76,10.459-6.314,15.951-.814l17.858,17.858c3.536,3.536,4.57,7.559,3.328,10.984-.045.124-.112.241-.162.363-.1.253-.205.508-.335.753a12.009,12.009,0,0,1-6.422,5.283l-35.632,16.665c-8.255,3.275-15.351-3.821-12.077-12.076l16.059-36.228A15.493,15.493,0,0,1,1196.6,163.159ZM1132.607,148c1.769-2.687,5.088-4.355,9.532-4.355h25.252c8.887,0,13.27,6.669,9.748,14.83l-13.415,36.97a12.043,12.043,0,0,1-.734,1.435c-4.017,6.7-13.039,6.22-16.341-1.432l-14.268-36.97C1130.619,154.4,1130.838,150.686,1132.607,148Zm-55.482,34.625a15.47,15.47,0,0,1,1.991-2.42l17.858-17.858c6.276-6.276,14.106-4.665,17.38,3.6l16.656,35.623a9.83,9.83,0,0,1-.2,8.317c-2,3.807-6.71,5.809-11.87,3.761L1082.7,197.586C1075.481,194.721,1073.337,188.374,1077.125,182.623Zm-16.722,68V225.371a12.718,12.718,0,0,1,1.8-6.911c2.52-3.949,7.43-5.267,13.042-2.839l36.97,13.406c5.606,2.422,7.357,7.925,5.253,12.271a10.12,10.12,0,0,1-5.255,4.814l-36.97,14.26C1067.081,263.893,1060.4,259.511,1060.4,250.624Zm53.284,60.9c-3.58,6.964-10.822,8.013-16.715,2.119l-17.859-17.849c-3.536-3.536-4.569-7.559-3.326-10.984.965-2.664,3.307-4.966,6.919-6.4l35.631-16.664c8.264-3.275,15.351,3.812,12.076,12.076l-16.059,36.227Q1114.047,310.822,1113.687,311.519Zm63.229,16.472c-1.766,2.689-5.084,4.359-9.527,4.359h-25.252c-8.886,0-13.279-6.678-9.756-14.831l9.717-26.776,3.7-10.2c3.522-8.161,13.551-8.161,17.073-.008l14.268,36.978C1178.9,321.594,1178.684,325.3,1176.916,327.991Zm56.74-37.108c-.007.019-.018.039-.025.058a11.2,11.2,0,0,1-.515,1.189,14.421,14.421,0,0,1-2.712,3.659l-17.857,17.849c-6.278,6.287-14.1,4.674-17.382-3.589l-16.655-35.631a9.827,9.827,0,0,1,.2-8.313c2-3.808,6.708-5.814,11.874-3.766l36.228,16.058C1233.009,280.86,1235.468,285.877,1233.656,290.883Zm10.423-15.338a1.706,1.706,0,0,1-2.233.911l-67.558-28.4c-.013-.007-.025-.015-.038-.021a22.031,22.031,0,0,1-9.656,9.554c0,.013.015.025.02.04l27.688,67.852a1.706,1.706,0,1,1-3.158,1.29l-27.688-67.853c-.005-.015-.007-.029-.012-.043a22.043,22.043,0,0,1-13.585-.072c-.006.014-.007.029-.014.043l-28.4,67.558a1.7,1.7,0,0,1-1.573,1.046,1.705,1.705,0,0,1-1.572-2.367l28.4-67.557a.376.376,0,0,1,.021-.041,21.988,21.988,0,0,1-9.554-9.656c-.015.007-.027.016-.04.022l-67.853,27.689a1.705,1.705,0,0,1-1.289-3.158l67.853-27.689c.013-.006.028-.008.042-.013a22.011,22.011,0,0,1,.073-13.584c-.015-.006-.03-.007-.045-.013l-67.557-28.4a1.705,1.705,0,1,1,1.321-3.144l67.558,28.4a.37.37,0,0,1,.04.022,22.025,22.025,0,0,1,9.66-9.554c-.007-.015-.019-.027-.025-.042l-27.689-67.851a1.705,1.705,0,1,1,3.158-1.289l27.688,67.851c.008.015.009.031.016.047a22.02,22.02,0,0,1,13.581.071.372.372,0,0,1,.014-.047l28.4-67.558a1.706,1.706,0,0,1,3.145,1.323l-28.4,67.556c-.006.016-.018.027-.024.042a22.03,22.03,0,0,1,9.557,9.656c.015-.007.026-.016.042-.022l67.851-27.688a1.705,1.705,0,0,1,1.289,3.158L1175.682,231.3c-.013.005-.03.008-.043.013a22.039,22.039,0,0,1-.072,13.584c.015.005.03.007.044.013l67.557,28.4A1.707,1.707,0,0,1,1244.079,275.545Zm2.495-17.006c-2.673,3.147-7.192,4.035-12.289,1.833l-36.979-13.415c-5.606-2.422-7.356-7.922-5.253-12.265a10.129,10.129,0,0,1,5.255-4.812l36.979-14.259c8.152-3.531,14.83.861,14.83,9.748v25.252A12.005,12.005,0,0,1,1246.574,258.539Z" fill="#f2e7cb"/>
      <path id="Trazado_1326" data-name="Trazado 1326" d="M1154.759,219.495a18.505,18.505,0,1,0,13.086,5.42A18.385,18.385,0,0,0,1154.759,219.495Zm5.271,23.769a7.45,7.45,0,1,1,0-10.532A7.459,7.459,0,0,1,1160.03,243.264Z" fill="#f2e7cb"/>
    </g>
    <path id="Trazado_1327" data-name="Trazado 1327" d="M1211.553,246.781c-8.21,2.9-18.11,2.607-25.58-2.184-7.342-4.71-14.032-8.111-23.066-7.946-8.072.147-14.748,4.51-22.566,5.439-6.2.737-12.5-1.967-16.995-6.3-4.387-4.232-7.3-10.685-5.393-16.474,1-3.032,3.182-5.533,4.428-8.471,2.873-6.777-4.692-10.866-2.811-18,1.6-6.067,8.258-10.395,8.158-16.669-.072-4.592-3.628-8.151-4.88-12.4a16.858,16.858,0,0,1,1.245-13,15.541,15.541,0,0,1,7.315-6.532c2.737-1.166,5.8-1.188,7.911-3.58,3.772-4.262,5.156-8.882,10.332-12,4.381-2.638,10.168-2.806,15.194-2.345,11.17,1.024,22.011,6.919,28.3,16.309,2.23,3.328,3.839,6.733,3.9,10.688.061,4.323.06,8.672,2.709,12.348,2.224,3.086,5.794,4.892,9.334,6.284s7.25,2.52,10.358,4.714,5.576,5.773,5.213,9.56c-.3,3.169-2.5,5.923-2.789,9.093-.531,5.765,5.022,9.953,8.446,14.621a22.713,22.713,0,0,1,1.981,23.037c-4.154,8.357-11.7,10.242-19.61,13.387Q1212.125,246.578,1211.553,246.781Z" fill="#755846"/>
    <path id="Trazado_1328" data-name="Trazado 1328" d="M1191.382,208.48c.291,7.084-1.351,12.4-7.83,15.909-5.16,2.79-11.339,3.706-17.033,3.846-9.551.235-20.192-2.228-27.337-8.936-1.3-1.218-2.541-2.71-2.634-4.486-.086-1.615.8-3.136.881-4.751.132-2.724-1.986-4.98-2.932-7.537-1.251-3.377-.4-7.148.722-10.569s2.529-6.877,2.361-10.474c-.219-4.666-3.023-8.74-5.268-12.837s-4.012-9.081-2.094-13.34a9.537,9.537,0,0,1,7.36-5.307c3.254-.361,6.179,3.358,8.263,5.407a51.063,51.063,0,0,0,9.294,7.228c4.65,2.822,9.756,4.9,14.13,8.137,2.647,1.957,5.486,4.643,6.75,7.76,1.424,3.512-1.07,6.913,1.945,10.143,1.945,2.085,4.932,2.794,7.284,4.4C1190.279,196.527,1191.152,202.886,1191.382,208.48Z" fill="#5e4130"/>
    <path id="Trazado_1329" data-name="Trazado 1329" d="M1209.385,245.836c5.6.715,11.51.223,16.516-2.4,6.374-3.336,9.563-9.451,9.695-16.487.1-5.1-.891-10.41-3.968-14.475-3.346-4.419-8.953-7.137-11.033-12.274-1.348-3.328-1.025-7.857,1.64-10.432,1.7-1.639,3.022-3.487,2.805-5.943-.32-3.615-2.964-7.087-5.918-9.039-4.331-2.863-9.718-3.91-14.785-4.554-3.432-.436-6.852-1.4-7.914-5.1a27.219,27.219,0,0,1-.566-6.147c-.229-4.37-.549-8.741-1.2-13.071-.753-4.992-3.995-9.82-7.61-13.259q-.779-.741-1.614-1.418c-9.32-7.55-26.572-10.224-36.851-3.227a15.923,15.923,0,0,0-6.742,10.211c-.522,2.789-1.278,3.39-4,4.235-4.951,1.537-10.57,2.627-14.5,6.259a13.583,13.583,0,0,0-4.08,11.269c.522,5.269,4.206,7.79,6.844,11.966,2.692,4.262.575,9.626-2.552,13.144-2.409,2.709-5.827,4.688-7.187,8.048-1.252,3.091-.423,6.664,1.089,9.637.612,1.205,1.333,2.355,1.875,3.593a13.923,13.923,0,0,1-.449,11.916" fill="none" stroke="#755846" stroke-miterlimit="10" stroke-width="10"/>
    <g id="Grupo_882" data-name="Grupo 882">
      <path id="Trazado_1330" data-name="Trazado 1330" d="M1173.124,217.079c-4.29,4.878-12.536,5.265-18.307,3.27-3.929-1.359-6.7-4.456-6.788-8.714-.093-4.761,4.083-8.143,5.138-12.58a29.853,29.853,0,0,0,.478-7.666c-.073-2.987-.094-5.982-.238-8.964a31.734,31.734,0,0,1,8.493-.809c2.6.108,5.193-.164,7.79-.011a.917.917,0,0,1,.583.172.835.835,0,0,1,.193.56c.349,4.033.006,8.118.279,12.159A20.364,20.364,0,0,0,1174,205.023,9.82,9.82,0,0,1,1173.124,217.079Z" fill="#f8a17a"/>
    </g>
    <g id="Grupo_883" data-name="Grupo 883">
      <path id="Trazado_1331" data-name="Trazado 1331" d="M1129.336,275.268c2.659-7.945,5.871-15.5,8.884-22.576,4.537-10.65,9.823-22.3,7.848-34.252-.945-5.72-5.846-10.488-11.933-9.428a13.414,13.414,0,0,0-8.848,5.99c-2.3,3.448-3.576,7.462-4.943,11.34a208.906,208.906,0,0,0-6.09,20.836c-1.688,7.041-3.075,10.16-5.376,17.039a27.122,27.122,0,0,0-.841,8.994c2.8,5.821,1.125,7.724,4.968,15.846C1118.833,290.962,1128.094,278.98,1129.336,275.268Z" fill="#a6b73e"/>
    </g>
    <g id="Grupo_884" data-name="Grupo 884" opacity="0.5">
      <path id="Trazado_1332" data-name="Trazado 1332" d="M1128.255,254.353c.3,6.949.785,13.966,1.081,20.915.852-2.636,2.169-6.287,2.871-8.256,1.4-3.923,3.568-8.338,4.576-12.381a112.457,112.457,0,0,0,2.475-15.038,26.025,26.025,0,0,0,.129-5.657,40.719,40.719,0,0,0-1.872-6.239q-.805-2.462-1.7-4.89c-.49-1.325-2.746-2.958-2.02-4.632a91.033,91.033,0,0,0-5.139,13.96c-1.157,4.615-.969,8.79-.769,13.467Z" fill="#a6b73e"/>
    </g>
    <g id="Grupo_885" data-name="Grupo 885">
      <path id="Trazado_1333" data-name="Trazado 1333" d="M1214.576,235.026c3.157,6.728,6.091,13.564,8.642,20.546,1.765,4.829,4.235,10.056,5.723,14.991,2.334,7.741,2.177,11.141-.6,14.911-2.494,3.391-8.281,3.716-12.108,2.213-3.182-1.25-5.143-5.325-6.65-8.289-2-3.931-4-7.882-6.106-11.772-4.375-8.078-9.227-15.88-13.657-23.919-3.92-7.113-7.323-15.1-7.2-23.375.085-5.8,4.223-11.24,10.4-11.1a13.412,13.412,0,0,1,9.64,4.61c2.791,3.067,4.644,6.848,6.572,10.48Q1212.039,229.6,1214.576,235.026Z" fill="#a6b73e"/>
    </g>
    <g id="Grupo_886" data-name="Grupo 886" opacity="0.5">
      <path id="Trazado_1334" data-name="Trazado 1334" d="M1203.093,254.9c1.148,6.074,2.247,12.165,3.494,18.212q.072.35.147.7c-1.223-2.486-3.26-6.136-4.239-7.983-1.952-3.68-5.707-10.142-7.917-13.766a33.359,33.359,0,0,1-4.325-10.7c-.71-3.15.277-4.79.865-7.929a33.494,33.494,0,0,1,2.523-6.7c.452-1.059.777-2.43,1.225-3.481.269-.631.96-3.748.721-4.421a37.975,37.975,0,0,1,1.462,6.255C1198.752,235.084,1201.21,244.931,1203.093,254.9Z" fill="#a6b73e"/>
    </g>
    <g id="Grupo_887" data-name="Grupo 887">
      <path id="Trazado_1335" data-name="Trazado 1335" d="M1153.338,198.457a32.21,32.21,0,0,0,.361-7.1c-.072-2.987-.093-5.982-.238-8.965a31.736,31.736,0,0,1,8.494-.808c2.6.107,5.193-.164,7.789-.012a.92.92,0,0,1,.584.173.837.837,0,0,1,.193.56c.348,4.033.006,8.118.279,12.158a29.516,29.516,0,0,0,.437,3.456c-.408.357-.823.7-1.25,1.015A13.314,13.314,0,0,1,1158.621,201,17.179,17.179,0,0,1,1153.338,198.457Z" fill="#e5785c"/>
    </g>
    <g id="Grupo_890" data-name="Grupo 890">
      <path id="Trazado_1336" data-name="Trazado 1336" d="M1133.408,263.1c.866,4.48.662,10.492.825,15.134a83.822,83.822,0,0,1-.417,13.737c7.127,1,13.772.837,20.968.753,3.05-.036,6.1-.072,9.143-.3,4.868-.36,9.685-1.2,14.529-1.807q6.871-.856,13.8-1.071a267.154,267.154,0,0,1,1.485-34.528c1.357-11.283,3.928-22.864,3.887-34.24-.013-3.709.331-10.143-3.959-11.818-3.835-1.5-7.723-2.846-11.617-4.177a57.9,57.9,0,0,0-11.1-2.821,49.176,49.176,0,0,0-16.416.773,101.122,101.122,0,0,0-14.42,4.342c-1.734.641-4.094,1.066-5.48,2.26-1.6,1.382-2.5,4.188-3.305,6.078a64,64,0,0,0-4.893,20.02,35.749,35.749,0,0,0,.277,9.942c1.1,5.188,3.946,9.752,5.826,14.661A18.15,18.15,0,0,1,1133.408,263.1Z" fill="#a6b73e"/>
      <g id="Grupo_889" data-name="Grupo 889" clip-path="url(#clip-path)">
        <g id="Grupo_888" data-name="Grupo 888">
          <path id="Trazado_1337" data-name="Trazado 1337" d="M1155.748,183.784a31.894,31.894,0,0,1,5.516-.254,22.921,22.921,0,0,1,13.987,4.848c3.159,2.59,6.5,6.41,6.557,12.016.033,3.389-1.444,6.39-2.843,9.472-4.765,10.494-12.235,18.713-21.14,17.778-11.349-1.192-18.372-17.4-14.007-32.638a17.842,17.842,0,0,1,3.875-7.448A13.635,13.635,0,0,1,1155.748,183.784Z" fill="#f8a17a"/>
        </g>
      </g>
    </g>
    <g id="Grupo_891" data-name="Grupo 891">
      <path id="Trazado_1339" data-name="Trazado 1339" d="M1182.529,265.824" fill="#ff9243"/>
    </g>
    <g id="Grupo_902" data-name="Grupo 902">
      <g id="Grupo_892" data-name="Grupo 892">
        <path id="Trazado_1340" data-name="Trazado 1340" d="M1086.051,202.936a25.659,25.659,0,0,0-5.29-2.516c-1.273-.452-2.957-.916-4.064.152a.662.662,0,0,0-.177.753.9.9,0,0,0,.238.259c1.72,1.4,4.184,1.866,5.519,3.639a7.035,7.035,0,0,0-2.153-1.2q-1.16-.58-2.371-1.049a8.852,8.852,0,0,0-4.216-.869,1.461,1.461,0,0,0-1.027.557,1.485,1.485,0,0,0,.171,1.705,4.347,4.347,0,0,0,1.478,1.064l1.291.676a6.191,6.191,0,0,0-2.958-.663,1.544,1.544,0,0,0-1.382,1.643c.149.714.831.985,1.359,1.364.817.586,1.777,1,2.544,1.652-.478-.385-1.413-.083-1.947.218a1.98,1.98,0,0,0-.951,1.494,1.3,1.3,0,0,0,.1.728,1.822,1.822,0,0,0,.691.646l5.286,3.424c2.731,1.761,5.578,3.24,8.164,5.242a22.561,22.561,0,0,1,2.72,2.279c1.317,1.408,3.375,2.742,4.138,4.568.647,1.549,2.15,5.008,3.561,5.917,1.987,1.28,1.967.787,3.4-.573,1.82-1.722.131-6.208-.269-8.5-.264-1.513.911-3.276,1.014-4.806a20.4,20.4,0,0,0-.169-4.284,11.319,11.319,0,0,0-1.007-3.044,20.388,20.388,0,0,0-1.512-2.27,19.835,19.835,0,0,1-1.759-5.186c-.356-1.251-.72-2.663-2.174-2.995a2.46,2.46,0,0,0-2.28.682c-.687.716-.376,1.208-.142,2.066.164.6.284,2.129.7,2.57A34.957,34.957,0,0,0,1086.051,202.936Z" fill="#f8a17a"/>
      </g>
      <g id="Grupo_895" data-name="Grupo 895">
        <g id="Grupo_894" data-name="Grupo 894">
          <g id="Grupo_893" data-name="Grupo 893">
            <path id="Trazado_1341" data-name="Trazado 1341" d="M1087.459,208.766a14.072,14.072,0,0,0-1.262-1.252,16.721,16.721,0,0,0-1.4-1.106,16.371,16.371,0,0,0-1.506-.949c-.261-.142-.523-.281-.788-.414s-.538-.251-.813-.36c.254.153.511.3.762.454s.505.3.754.463c.5.318.987.641,1.466.983s.95.694,1.415,1.056S1087.006,208.385,1087.459,208.766Z" fill="#e5785c"/>
          </g>
        </g>
      </g>
      <g id="Grupo_898" data-name="Grupo 898">
        <g id="Grupo_897" data-name="Grupo 897">
          <g id="Grupo_896" data-name="Grupo 896">
            <path id="Trazado_1342" data-name="Trazado 1342" d="M1085.013,210.874a16.644,16.644,0,0,0-2.375-1.686,25.79,25.79,0,0,0-2.6-1.328c-.893-.385-1.8-.742-2.713-1.063q-.688-.237-1.379-.465c-.464-.143-.925-.293-1.391-.428l2.712,1.049c.9.353,1.8.706,2.684,1.1.888.383,1.755.811,2.6,1.275A24.593,24.593,0,0,1,1085.013,210.874Z" fill="#e5785c"/>
          </g>
        </g>
      </g>
      <g id="Grupo_901" data-name="Grupo 901">
        <g id="Grupo_900" data-name="Grupo 900">
          <g id="Grupo_899" data-name="Grupo 899">
            <path id="Trazado_1343" data-name="Trazado 1343" d="M1082.607,214.053q-.2-.2-.408-.389l-.43-.367-.451-.34-.465-.322a15.442,15.442,0,0,0-1.98-1.092q-1.026-.474-2.093-.845c-.355-.123-.711-.244-1.067-.36s-.717-.224-1.079-.324c.346.147.7.281,1.043.424l1.044.415c.693.284,1.385.569,2.061.886a22.1,22.1,0,0,1,1.983,1.036A16.064,16.064,0,0,1,1082.607,214.053Z" fill="#e5785c"/>
          </g>
        </g>
      </g>
    </g>
    <g id="Grupo_903" data-name="Grupo 903">
      <path id="Trazado_1344" data-name="Trazado 1344" d="M1151.866,139a19.372,19.372,0,0,1,9.005-2.438,33.5,33.5,0,0,1,9.353,1.044,28.814,28.814,0,0,1,15.6,10.2,25.774,25.774,0,0,1,4.294,8.452,32.523,32.523,0,0,1,1.032,9.42c-.031,3.147-.255,6.277-.152,9.373a16.872,16.872,0,0,0,.723,4.506,7.07,7.07,0,0,0,2.439,3.607,8.495,8.495,0,0,0,4.173,1.439c1.517.18,3.1.189,4.682.4a21.325,21.325,0,0,1,9.036,2.96,7.245,7.245,0,0,1,3.209,8.577,33.753,33.753,0,0,1-2,4.3,13.668,13.668,0,0,0-1.166,4.4,20.527,20.527,0,0,0,1.586,9.037,84.6,84.6,0,0,1,3.1,8.891,18.94,18.94,0,0,1,.565,4.7,14.816,14.816,0,0,1-.823,4.65,15.917,15.917,0,0,1-5.48,7.505,15.478,15.478,0,0,0,5.313-16.749,85.823,85.823,0,0,0-3.209-8.8,21.141,21.141,0,0,1-1.743-9.295,14.44,14.44,0,0,1,1.167-4.653,34.771,34.771,0,0,0,1.94-4.214,6.46,6.46,0,0,0-2.92-7.683,20.555,20.555,0,0,0-8.686-2.787c-1.526-.2-3.085-.2-4.681-.38a9.329,9.329,0,0,1-4.6-1.59,7.961,7.961,0,0,1-2.736-4.054,17.667,17.667,0,0,1-.745-4.745c-.092-3.17.148-6.3.191-9.416a31.733,31.733,0,0,0-.962-9.2,25.981,25.981,0,0,0-4.1-8.247,28.3,28.3,0,0,0-15.159-10.2,33.213,33.213,0,0,0-9.236-1.249A19.276,19.276,0,0,0,1151.866,139Z" fill="#8e6751"/>
    </g>
    <path id="Trazado_1345" data-name="Trazado 1345" d="M1133.048,167.1c-5.592,5.754-.52,19.813,8.4,17.779,9.583-2.187,8.141-17.121-.524-19.573A7.576,7.576,0,0,0,1133.048,167.1Z" fill="#fff"/>
    <path id="Trazado_1346" data-name="Trazado 1346" d="M1177.156,166.778a38.653,38.653,0,0,0-1.694-11.551c-4.686-14.346-22.583-17.891-33.36-7.592-12.018,11.484-7.419,38.943,5.24,48.589a14.2,14.2,0,0,0,12.095,2.382C1171.874,195.271,1177.235,179.965,1177.156,166.778Z" fill="#f8a17a"/>
    <path id="Trazado_1347" data-name="Trazado 1347" d="M1174.8,167.133c5.506-3.011,7.2,4.613,6.254,8.406a12.125,12.125,0,0,1-1.983,4.385c-1.31,1.736-5.057,4.616-7.215,2.717-.979-.862-1.08-2.327-1.11-3.631C1170.669,175.513,1171.072,169.173,1174.8,167.133Z" fill="#f8a17a"/>
    <path id="Trazado_1348" data-name="Trazado 1348" d="M1177.184,155.819c-4.934-15.1-23.776-18.837-35.123-7.994a22.343,22.343,0,0,0-5.519,8.9,10.585,10.585,0,0,0,.875,1.177,16.844,16.844,0,0,0,5.868,3.98,84.333,84.333,0,0,0,19.963,5.915c.5.095,1.011.188,1.517.288a16.9,16.9,0,0,1,5.4,1.8c4.649,2.74,2.65,8.767,6.055,11.407a3.236,3.236,0,0,0,.93.5,50.821,50.821,0,0,0,1.821-13.814A40.646,40.646,0,0,0,1177.184,155.819Z" fill="#e5785c"/>
    <path id="Trazado_1349" data-name="Trazado 1349" d="M1165.253,166.355a16.9,16.9,0,0,1,5.039,2.642c4.152,3.446,1.217,9.076,4.158,12.227,2.605,2.791,6.562-.9,7.6-3.475,1.91-4.75,1.8-10.035,1.656-15.152a31.8,31.8,0,0,0-1-8.477,20.849,20.849,0,0,0-4.807-7.917,30.829,30.829,0,0,0-24.262-9.459c-6.982.439-19.231,6.307-13.757,15.2a16.86,16.86,0,0,0,5.157,4.866,84.381,84.381,0,0,0,18.765,9.023C1164.284,166,1164.769,166.176,1165.253,166.355Z" fill="#755846"/>
    <g id="Grupo_904" data-name="Grupo 904">
      <path id="Trazado_1350" data-name="Trazado 1350" d="M1181.7,165.988l-3.862-.239c1.128-10.727-2-24.773-11.167-29.869-3.436-1.909-18.646-5.012-24.331,1.008-.778.874-1.3,1.607-1.3,1.607,3.168-10.608,20.375-9.271,28.287-5.705C1181.34,138.2,1182.839,154.585,1181.7,165.988Z" fill="#b8d1ce"/>
    </g>
    <path id="Trazado_1351" data-name="Trazado 1351" d="M1177.117,164.964c-7.772,1.993-10.776,16.634-2.1,19.549,9.316,3.132,15.874-10.362,9.759-16.973A7.576,7.576,0,0,0,1177.117,164.964Z" fill="#fff"/>
    <path id="Trazado_1352" data-name="Trazado 1352" d="M1179.664,166.843c-5.365.862-8.67,12.26-3.14,15.4,5.941,3.371,11.517-6.779,8.021-12.625C1183.182,167.335,1181.391,166.566,1179.664,166.843Z" fill="#b8d1ce"/>
    <path id="Trazado_1353" data-name="Trazado 1353" d="M1106.68,235.547c1.716,3.525,3.23,6.6,3.515,7.208,4.362,9.3,8.47,18.673,11.265,28.581a26.359,26.359,0,0,1,1.252,7.09c0,5.266-4.127,10.592-9.707,10.631-4.5.032-7-3.134-8.409-6.953-3.356-9.088-5.319-18.607-7-28.124-1.375-7.767-2.633-15.55-4.172-23.287-.234-1.174-.72-2.272-1.013-3.379,3.007-1.116,5.388-3.868,8.254-5.326C1100.471,222.086,1104.021,230.087,1106.68,235.547Z" fill="#f8a17a"/>
    <g id="Grupo_905" data-name="Grupo 905">
      <path id="Trazado_1354" data-name="Trazado 1354" d="M1235.067,141.188h-9a6.976,6.976,0,0,0-6.955,6.955h0a6.961,6.961,0,0,0,3.015,5.721v4.9l5.006-3.661h7.931a6.976,6.976,0,0,0,6.955-6.955h0A6.976,6.976,0,0,0,1235.067,141.188Z" fill="#9ed2f2"/>
      <circle id="Elipse_88" data-name="Elipse 88" cx="1.055" cy="1.055" r="1.055" transform="translate(1224.474 147.088)" fill="#fff"/>
      <circle id="Elipse_89" data-name="Elipse 89" cx="1.055" cy="1.055" r="1.055" transform="translate(1229.513 147.088)" fill="#fff"/>
      <circle id="Elipse_90" data-name="Elipse 90" cx="1.055" cy="1.055" r="1.055" transform="translate(1234.552 147.088)" fill="#fff"/>
    </g>
    <g id="Grupo_910" data-name="Grupo 910">
      <g id="Grupo_906" data-name="Grupo 906">
        <rect id="Rectángulo_359" data-name="Rectángulo 359" width="23.954" height="16.638" rx="8.319" transform="translate(1079.821 153.969)" fill="#9ed2f2"/>
      </g>
      <g id="Grupo_907" data-name="Grupo 907">
        <path id="Trazado_1355" data-name="Trazado 1355" d="M1091.8,175.864l4.2-5.664h-8.4Z" fill="#9ed2f2"/>
      </g>
      <g id="Grupo_908" data-name="Grupo 908">
        <path id="Trazado_1356" data-name="Trazado 1356" d="M1098.1,164.427h-1.036V161.59l.01-.466.016-.51q-.258.26-.358.339l-.564.453-.5-.624,1.579-1.257h.852Z" fill="#fff"/>
      </g>
      <g id="Grupo_909" data-name="Grupo 909">
        <path id="Trazado_1357" data-name="Trazado 1357" d="M1090.418,159.36h-3.4a2.635,2.635,0,0,0-2.627,2.627h0a2.629,2.629,0,0,0,1.139,2.162V166l1.891-1.384h3a2.636,2.636,0,0,0,2.628-2.628h0A2.635,2.635,0,0,0,1090.418,159.36Z" fill="#fff"/>
      </g>
    </g>
    <g id="Grupo_912" data-name="Grupo 912">
      <rect id="Rectángulo_360" data-name="Rectángulo 360" width="2.781" height="35.171" transform="translate(1078.623 252.157) rotate(9.608)" fill="#727f87"/>
      <circle id="Elipse_91" data-name="Elipse 91" cx="2.536" cy="2.536" r="2.536" transform="translate(1071.588 284.531)" fill="#324751"/>
      <rect id="Rectángulo_361" data-name="Rectángulo 361" width="2.781" height="35.171" transform="translate(1079.907 259.922) rotate(-37.861)" fill="#727f87"/>
      <circle id="Elipse_92" data-name="Elipse 92" cx="2.536" cy="2.536" r="2.536" transform="translate(1100.055 284.3)" fill="#324751"/>
      <rect id="Rectángulo_362" data-name="Rectángulo 362" width="2.781" height="35.171" transform="translate(1056.799 287.689) rotate(-142.139)" fill="#727f87"/>
      <circle id="Elipse_93" data-name="Elipse 93" cx="2.536" cy="2.536" r="2.536" transform="translate(1053.165 284.3)" fill="#324751"/>
      <g id="Grupo_911" data-name="Grupo 911">
        <path id="Rectángulo_363" data-name="Rectángulo 363" d="M6.871,0h0a6.871,6.871,0,0,1,6.871,6.871V26.014a0,0,0,0,1,0,0H0a0,0,0,0,1,0,0V6.871A6.871,6.871,0,0,1,6.871,0Z" transform="translate(1112.093 205.906) rotate(62.393)" fill="#727f87"/>
        <path id="Rectángulo_364" data-name="Rectángulo 364" d="M0,0H14.8a0,0,0,0,1,0,0V5.689a7.4,7.4,0,0,1-7.4,7.4h0A7.4,7.4,0,0,1,0,5.689V0A0,0,0,0,1,0,0Z" transform="translate(1089.956 216.887) rotate(62.393)" fill="#324751"/>
        <rect id="Rectángulo_365" data-name="Rectángulo 365" width="14.796" height="3.091" transform="translate(1092.347 215.637) rotate(62.393)" fill="#ea394a"/>
        <path id="Rectángulo_366" data-name="Rectángulo 366" d="M0,0H10.306a0,0,0,0,1,0,0V13.872a5.391,5.391,0,0,1-5.391,5.391h0A4.915,4.915,0,0,1,0,14.347V0A0,0,0,0,1,0,0Z" transform="translate(1080.197 224.524) rotate(62.393)" fill="#324751"/>
        <path id="Trazado_1358" data-name="Trazado 1358" d="M1081.451,251.015l.673-16.1-10.259,5.365Z" fill="#324751"/>
      </g>
      <path id="Rectángulo_367" data-name="Rectángulo 367" d="M3.517,0h0A3.517,3.517,0,0,1,7.034,3.517V19.3a0,0,0,0,1,0,0H0a0,0,0,0,1,0,0V3.517A3.517,3.517,0,0,1,3.517,0Z" transform="translate(1075.713 241.304)" fill="#727f87"/>
      <circle id="Elipse_94" data-name="Elipse 94" cx="2.168" cy="2.168" r="2.168" transform="translate(1077.062 242.953)" fill="#ea394a"/>
      <path id="Rectángulo_368" data-name="Rectángulo 368" d="M0,0H10.633a0,0,0,0,1,0,0V1.554A5.317,5.317,0,0,1,5.317,6.871h0A5.317,5.317,0,0,1,0,1.554V0A0,0,0,0,1,0,0Z" transform="translate(1073.913 255.372)" fill="#324751"/>
    </g>
    <g id="Grupo_917" data-name="Grupo 917">
      <g id="Grupo_913" data-name="Grupo 913">
        <path id="Trazado_1359" data-name="Trazado 1359" d="M1000.888,265.622c-36.533,0-44.215,6.207-44.215,9.935v82.852c0-2.881,4.6-7.245,23.558-9.075,5.566-.533,12.367-.855,20.657-.855h62.37V265.623Z" fill="#014d77"/>
        <path id="Trazado_1360" data-name="Trazado 1360" d="M961.361,282.436A25.675,25.675,0,0,1,970,279.209v-5.97a26.872,26.872,0,0,0-8.642,2.943Z" fill="#e1dcb0"/>
        <path id="Trazado_1361" data-name="Trazado 1361" d="M1000.809,270.86c-3.534-.013-6.818.035-9.882.133v5.857c3.064-.1,6.348-.148,9.882-.135l.512,0v-5.855Z" fill="#e1dcb0"/>
        <path id="Trazado_1362" data-name="Trazado 1362" d="M975.04,278.08c3.075-.417,6.524-.749,10.4-.98v-5.863c-3.871.224-7.32.54-10.4.929Z" fill="#e1dcb0"/>
        <rect id="Rectángulo_369" data-name="Rectángulo 369" width="9.582" height="5.856" transform="translate(1038.539 270.861)" fill="#e1dcb0"/>
        <rect id="Rectángulo_370" data-name="Rectángulo 370" width="9.582" height="5.856" transform="translate(1022.733 270.861)" fill="#e1dcb0"/>
        <rect id="Rectángulo_371" data-name="Rectángulo 371" width="9.582" height="5.856" transform="translate(1006.926 270.861)" fill="#e1dcb0"/>
        <rect id="Rectángulo_372" data-name="Rectángulo 372" width="9.582" height="5.856" transform="translate(1022.733 337.385)" fill="#e1dcb0"/>
        <rect id="Rectángulo_373" data-name="Rectángulo 373" width="9.582" height="5.856" transform="translate(1008.088 337.385)" fill="#e1dcb0"/>
        <path id="Trazado_1363" data-name="Trazado 1363" d="M1035.036,277.116h-.005v82.859l28.226-11.5V265.624Z" fill="#001e2b"/>
        <rect id="Rectángulo_374" data-name="Rectángulo 374" width="58.559" height="82.854" transform="translate(1035.031 277.121)" fill="#1169a5"/>
        <rect id="Rectángulo_375" data-name="Rectángulo 375" width="9.326" height="5.856" transform="translate(1069.455 282.359)" fill="#e1dcb0"/>
        <rect id="Rectángulo_376" data-name="Rectángulo 376" width="9.326" height="5.856" transform="translate(1055.2 282.359)" fill="#e1dcb0"/>
        <rect id="Rectángulo_377" data-name="Rectángulo 377" width="9.326" height="5.856" transform="translate(1040.172 282.359)" fill="#e1dcb0"/>
        <rect id="Rectángulo_378" data-name="Rectángulo 378" width="9.326" height="5.856" transform="translate(1055.2 348.882)" fill="#e1dcb0"/>
        <rect id="Rectángulo_379" data-name="Rectángulo 379" width="9.326" height="5.856" transform="translate(1040.172 348.882)" fill="#e1dcb0"/>
        <path id="Trazado_1364" data-name="Trazado 1364" d="M1065.369,288.614h-.005v82.859l28.226-11.5V277.121Z" fill="#001e2b"/>
        <path id="Trazado_1365" data-name="Trazado 1365" d="M981.256,283.608c-15.194,0-24.583-3.53-24.583-8.051v82.852c0,4.637,9.161,8.439,24.583,8.439,16.218,0,27.314-3.973,28.476-6.533V277.462c-1.162,1.2-6.283,6.146-28.476,6.146Z" fill="#2a8ef2"/>
        <path id="Trazado_1366" data-name="Trazado 1366" d="M970.988,353.947v6a68.5,68.5,0,0,0,9.307.7v-6a68.5,68.5,0,0,1-9.307-.7Z" fill="#e1dcb0"/>
        <path id="Trazado_1367" data-name="Trazado 1367" d="M959.834,350.183v6a19.553,19.553,0,0,0,6.334,2.774v-6a19.553,19.553,0,0,1-6.334-2.774Z" fill="#e1dcb0"/>
        <path id="Trazado_1368" data-name="Trazado 1368" d="M985.447,354.555v6a79.034,79.034,0,0,0,9.1-.92v-6a79.265,79.265,0,0,1-9.1.919Z" fill="#e1dcb0"/>
        <path id="Trazado_1369" data-name="Trazado 1369" d="M998.908,358.763c2.762-.669,4.968-1.453,7.662-2.247v-6c-2.694.794-4.9,1.578-7.662,2.247Z" fill="#e1dcb0"/>
        <path id="Trazado_1370" data-name="Trazado 1370" d="M1006.57,291.7v-6c-2.694.793-4.9,1.577-7.662,2.246v6c2.761-.669,4.968-1.453,7.662-2.246Z" fill="#e1dcb0"/>
        <path id="Trazado_1371" data-name="Trazado 1371" d="M966.168,288.14a19.544,19.544,0,0,1-6.334-2.773v6a19.532,19.532,0,0,0,6.334,2.776Z" fill="#e1dcb0"/>
        <path id="Trazado_1372" data-name="Trazado 1372" d="M980.295,295.83v-6a68.369,68.369,0,0,1-9.307-.694v6a68.52,68.52,0,0,0,9.307.694Z" fill="#e1dcb0"/>
        <path id="Trazado_1373" data-name="Trazado 1373" d="M994.543,294.822v-6a79.006,79.006,0,0,1-9.1.92v6a79,79,0,0,0,9.1-.92Z" fill="#e1dcb0"/>
      </g>
      <g id="Grupo_916" data-name="Grupo 916">
        <path id="Trazado_1374" data-name="Trazado 1374" d="M1308.63,265.622c36.533,0,44.216,6.207,44.216,9.935v82.852c0-2.881-4.6-7.245-23.559-9.075-5.566-.533-12.367-.855-20.657-.855h-62.369V265.623Z" fill="#014d77"/>
        <path id="Trazado_1375" data-name="Trazado 1375" d="M1348.156,282.436a25.665,25.665,0,0,0-8.64-3.227v-5.97a26.862,26.862,0,0,1,8.64,2.943Z" fill="#e1dcb0"/>
        <path id="Trazado_1376" data-name="Trazado 1376" d="M1308.709,270.86c3.533-.013,6.818.035,9.883.133v5.857c-3.065-.1-6.35-.148-9.883-.135l-.512,0v-5.855Z" fill="#e1dcb0"/>
        <path id="Trazado_1377" data-name="Trazado 1377" d="M1334.478,278.08c-3.074-.417-6.523-.749-10.4-.98v-5.863c3.872.224,7.321.54,10.4.929Z" fill="#e1dcb0"/>
        <rect id="Rectángulo_380" data-name="Rectángulo 380" width="9.582" height="5.856" transform="translate(1261.397 270.861)" fill="#e1dcb0"/>
        <rect id="Rectángulo_381" data-name="Rectángulo 381" width="9.582" height="5.856" transform="translate(1277.203 270.861)" fill="#e1dcb0"/>
        <rect id="Rectángulo_382" data-name="Rectángulo 382" width="9.582" height="5.856" transform="translate(1293.01 270.861)" fill="#e1dcb0"/>
        <rect id="Rectángulo_383" data-name="Rectángulo 383" width="9.582" height="5.856" transform="translate(1277.203 337.385)" fill="#e1dcb0"/>
        <rect id="Rectángulo_384" data-name="Rectángulo 384" width="9.582" height="5.856" transform="translate(1291.849 337.385)" fill="#e1dcb0"/>
        <path id="Trazado_1378" data-name="Trazado 1378" d="M1274.481,277.116h.005v82.859l-28.226-11.5V265.624Z" fill="#001e2b"/>
        <rect id="Rectángulo_385" data-name="Rectángulo 385" width="58.558" height="82.854" transform="translate(1215.928 277.121)" fill="#1169a5"/>
        <rect id="Rectángulo_386" data-name="Rectángulo 386" width="9.326" height="5.856" transform="translate(1230.738 282.359)" fill="#e1dcb0"/>
        <rect id="Rectángulo_387" data-name="Rectángulo 387" width="9.326" height="5.856" transform="translate(1244.991 282.359)" fill="#e1dcb0"/>
        <rect id="Rectángulo_388" data-name="Rectángulo 388" width="9.326" height="5.856" transform="translate(1260.02 282.359)" fill="#e1dcb0"/>
        <rect id="Rectángulo_389" data-name="Rectángulo 389" width="9.326" height="5.856" transform="translate(1244.991 348.882)" fill="#e1dcb0"/>
        <rect id="Rectángulo_390" data-name="Rectángulo 390" width="9.326" height="5.856" transform="translate(1260.02 348.882)" fill="#e1dcb0"/>
        <path id="Trazado_1379" data-name="Trazado 1379" d="M1244.149,288.614h.005v82.859l-28.226-11.5V277.121Z" fill="#001e2b"/>
        <path id="Trazado_1380" data-name="Trazado 1380" d="M1328.262,283.608c15.194,0,24.584-3.53,24.584-8.051v82.852c0,4.637-9.163,8.439-24.584,8.439-16.218,0-27.315-3.973-28.476-6.533V277.462c1.161,1.2,6.283,6.146,28.476,6.146Z" fill="#2a8ef2"/>
        <path id="Trazado_1381" data-name="Trazado 1381" d="M1338.53,353.947v6a68.513,68.513,0,0,1-9.307.7v-6a68.513,68.513,0,0,0,9.307-.7Z" fill="#e1dcb0"/>
        <path id="Trazado_1382" data-name="Trazado 1382" d="M1349.684,350.183v6a19.542,19.542,0,0,1-6.334,2.774v-6a19.542,19.542,0,0,0,6.334-2.774Z" fill="#e1dcb0"/>
        <path id="Trazado_1383" data-name="Trazado 1383" d="M1324.071,354.555v6a79.013,79.013,0,0,1-9.1-.92v-6a79.243,79.243,0,0,0,9.1.919Z" fill="#e1dcb0"/>
        <path id="Trazado_1384" data-name="Trazado 1384" d="M1310.609,358.763c-2.76-.669-4.967-1.453-7.661-2.247v-6c2.694.794,4.9,1.578,7.661,2.247Z" fill="#e1dcb0"/>
        <path id="Trazado_1385" data-name="Trazado 1385" d="M1302.948,291.7v-6c2.694.793,4.9,1.577,7.661,2.246v6c-2.76-.669-4.967-1.453-7.661-2.246Z" fill="#e1dcb0"/>
        <path id="Trazado_1386" data-name="Trazado 1386" d="M1343.35,288.14a19.532,19.532,0,0,0,6.334-2.773v6a19.53,19.53,0,0,1-6.334,2.776Z" fill="#e1dcb0"/>
        <path id="Trazado_1387" data-name="Trazado 1387" d="M1329.223,295.83v-6a68.367,68.367,0,0,0,9.307-.694v6a68.519,68.519,0,0,1-9.307.694Z" fill="#e1dcb0"/>
        <path id="Trazado_1388" data-name="Trazado 1388" d="M1314.975,294.822v-6a79.012,79.012,0,0,0,9.1.92v6a79.005,79.005,0,0,1-9.1-.92Z" fill="#e1dcb0"/>
        <path id="Trazado_1389" data-name="Trazado 1389" d="M1154.759,288.616h-89.394V371.47h178.789V288.616Z" fill="#2a8ef2"/>
        <g id="Grupo_914" data-name="Grupo 914">
          <rect id="Rectángulo_391" data-name="Rectángulo 391" width="9.326" height="5.856" transform="translate(1142.688 360.377)" fill="#e1dcb0"/>
          <rect id="Rectángulo_392" data-name="Rectángulo 392" width="9.326" height="5.856" transform="translate(1128.434 360.377)" fill="#e1dcb0"/>
          <rect id="Rectángulo_393" data-name="Rectángulo 393" width="9.326" height="5.856" transform="translate(1114.18 360.377)" fill="#e1dcb0"/>
          <rect id="Rectángulo_394" data-name="Rectángulo 394" width="9.326" height="5.856" transform="translate(1099.925 360.377)" fill="#e1dcb0"/>
          <rect id="Rectángulo_395" data-name="Rectángulo 395" width="9.326" height="5.856" transform="translate(1085.672 360.377)" fill="#e1dcb0"/>
          <rect id="Rectángulo_396" data-name="Rectángulo 396" width="9.326" height="5.856" transform="translate(1071.418 360.377)" fill="#e1dcb0"/>
          <rect id="Rectángulo_397" data-name="Rectángulo 397" width="9.326" height="5.856" transform="translate(1142.688 293.853)" fill="#e1dcb0"/>
          <rect id="Rectángulo_398" data-name="Rectángulo 398" width="9.326" height="5.856" transform="translate(1128.434 293.853)" fill="#e1dcb0"/>
          <rect id="Rectángulo_399" data-name="Rectángulo 399" width="9.326" height="5.856" transform="translate(1114.18 293.853)" fill="#e1dcb0"/>
          <rect id="Rectángulo_400" data-name="Rectángulo 400" width="9.326" height="5.856" transform="translate(1099.925 293.853)" fill="#e1dcb0"/>
          <rect id="Rectángulo_401" data-name="Rectángulo 401" width="9.326" height="5.856" transform="translate(1085.672 293.853)" fill="#e1dcb0"/>
          <rect id="Rectángulo_402" data-name="Rectángulo 402" width="9.326" height="5.856" transform="translate(1071.418 293.853)" fill="#e1dcb0"/>
        </g>
        <g id="Grupo_915" data-name="Grupo 915">
          <rect id="Rectángulo_403" data-name="Rectángulo 403" width="9.326" height="5.856" transform="translate(1157.504 360.377)" fill="#e1dcb0"/>
          <rect id="Rectángulo_404" data-name="Rectángulo 404" width="9.326" height="5.856" transform="translate(1171.758 360.377)" fill="#e1dcb0"/>
          <rect id="Rectángulo_405" data-name="Rectángulo 405" width="9.326" height="5.856" transform="translate(1186.012 360.377)" fill="#e1dcb0"/>
          <rect id="Rectángulo_406" data-name="Rectángulo 406" width="9.326" height="5.856" transform="translate(1200.266 360.377)" fill="#e1dcb0"/>
          <rect id="Rectángulo_407" data-name="Rectángulo 407" width="9.326" height="5.856" transform="translate(1214.521 360.377)" fill="#e1dcb0"/>
          <rect id="Rectángulo_408" data-name="Rectángulo 408" width="9.326" height="5.856" transform="translate(1228.774 360.377)" fill="#e1dcb0"/>
          <rect id="Rectángulo_409" data-name="Rectángulo 409" width="9.326" height="5.856" transform="translate(1157.504 293.853)" fill="#e1dcb0"/>
          <rect id="Rectángulo_410" data-name="Rectángulo 410" width="9.326" height="5.856" transform="translate(1171.758 293.853)" fill="#e1dcb0"/>
          <rect id="Rectángulo_411" data-name="Rectángulo 411" width="9.326" height="5.856" transform="translate(1186.012 293.853)" fill="#e1dcb0"/>
          <rect id="Rectángulo_412" data-name="Rectángulo 412" width="9.326" height="5.856" transform="translate(1200.266 293.853)" fill="#e1dcb0"/>
          <rect id="Rectángulo_413" data-name="Rectángulo 413" width="9.326" height="5.856" transform="translate(1214.521 293.853)" fill="#e1dcb0"/>
          <rect id="Rectángulo_414" data-name="Rectángulo 414" width="9.326" height="5.856" transform="translate(1228.774 293.853)" fill="#e1dcb0"/>
        </g>
      </g>
    </g>
    <path id="Trazado_1390" data-name="Trazado 1390" d="M1176.648,277.875c3.781-1.034,7.085-1.952,7.735-2.119,9.948-2.563,19.918-4.863,30.173-5.773a26.368,26.368,0,0,1,7.2.084c5.175.973,9.644,6.018,8.648,11.508-.8,4.424-4.377,6.3-8.391,6.975-9.553,1.614-19.271,1.779-28.935,1.67-7.887-.089-15.768-.294-23.656-.216-1.2.012-2.367.286-3.508.369a81.372,81.372,0,0,0-2.19-9.226C1163.784,281.353,1170.789,279.475,1176.648,277.875Z" fill="#f8a17a"/>
    <path id="Trazado_1391" data-name="Trazado 1391" d="M1167.873,289.693c-2.068.427-3.684,2.243-5.742,2.851a7.07,7.07,0,0,1-4.453-.327c-1.3-.487-2.617-.747-3.95-1.174-1.038-.332-2.44-1.033-3.555-.8-2.924.608-5.839,2.689-8.489,4.039a3.077,3.077,0,0,1-1.906.492c-.657-.125-1.2-.921-.831-1.476-.762.713-1.771,2.137-3,1.585a1.028,1.028,0,0,1-.528-1.368,4.164,4.164,0,0,1-1.45,1.172,1.421,1.421,0,0,1-1.693-.394,1.673,1.673,0,0,1-.225-.846,6.386,6.386,0,0,1,.679-2.941c2.087-4.555,6.807-7.934,10.823-10.647a8.635,8.635,0,0,1,2.254-1.217,7.886,7.886,0,0,1,2.279-.253,45.44,45.44,0,0,1,14.683,2.373,6.355,6.355,0,0,0,3.164-.14,4.934,4.934,0,0,1,2.277-.066,3.924,3.924,0,0,1,1.964,1.589,7.377,7.377,0,0,1,1.518,4.584c-.083,1.221-.176,2.539-1.613,2.795-.582.1-1.182.04-1.77.1A4.15,4.15,0,0,0,1167.873,289.693Z" fill="#f8a17a"/>
    <g id="Grupo_922" data-name="Grupo 922">
      <g id="Grupo_919" data-name="Grupo 919">
        <g id="Grupo_918" data-name="Grupo 918">
          <path id="Trazado_1392" data-name="Trazado 1392" d="M1176.668,257.515a6.3,6.3,0,0,1-.147-4.764,18.474,18.474,0,0,1,2.193-4.331,19.673,19.673,0,0,0,2.4-4.881A10.506,10.506,0,0,0,1181,237.7c-1.144-3.683-3.485-6.4-5.1-9.173a13.174,13.174,0,0,1-1.731-4.411,7.591,7.591,0,0,1,.575-4.8,6.932,6.932,0,0,0-2.064,4.884,12.417,12.417,0,0,0,1.092,5.373c1.4,3.344,3.5,6.059,4.314,8.994a7.888,7.888,0,0,1,.249,4.271,23.374,23.374,0,0,1-1.71,4.484,15.562,15.562,0,0,0-1.564,5.163A6.046,6.046,0,0,0,1176.668,257.515Z" fill="#fff"/>
        </g>
      </g>
      <g id="Grupo_921" data-name="Grupo 921">
        <g id="Grupo_920" data-name="Grupo 920">
          <path id="Rectángulo_415" data-name="Rectángulo 415" d="M10.34,0h0A10.34,10.34,0,0,1,20.68,10.34V29.622a0,0,0,0,1,0,0H0a0,0,0,0,1,0,0V10.34A10.34,10.34,0,0,1,10.34,0Z" transform="translate(1186.293 289.162) rotate(-180)" fill="#ea394a"/>
          <path id="Trazado_1393" data-name="Trazado 1393" d="M1155.189,275.35a8.98,8.98,0,1,0,8.979-9.111A9.046,9.046,0,0,0,1155.189,275.35Zm3.2,0a5.778,5.778,0,1,1,5.777,5.862A5.821,5.821,0,0,1,1158.391,275.35Z" fill="#ea394a"/>
          <path id="Trazado_1394" data-name="Trazado 1394" d="M1183.2,277.918h0a1.122,1.122,0,0,0,1.119-1.118V262.384a1.122,1.122,0,0,0-1.119-1.118h0a1.122,1.122,0,0,0-1.118,1.118V276.8A1.122,1.122,0,0,0,1183.2,277.918Z" fill="#fff" opacity="0.2"/>
          <path id="Trazado_1395" data-name="Trazado 1395" d="M1170.388,259.539v24.385a5.238,5.238,0,0,0,5.238,5.238h-4.776a5.238,5.238,0,0,1-5.238-5.238V259.539Z" fill="#ea394a"/>
        </g>
      </g>
    </g>
  </g>
</svg>
